<?xml version="1.0" encoding="utf-8"?>
<!-- Generator: Adobe Illustrator 16.0.0, SVG Export Plug-In . SVG Version: 6.00 Build 0)  -->
<!DOCTYPE svg PUBLIC "-//W3C//DTD SVG 1.1 Tiny//EN" "http://www.w3.org/Graphics/SVG/1.1/DTD/svg11-tiny.dtd">
<svg version="1.1" baseProfile="tiny" id="Calque_1"
	 xmlns="http://www.w3.org/2000/svg" xmlns:xlink="http://www.w3.org/1999/xlink" x="0px" y="0px" width="100px" height="100px"
	 viewBox="0 0 100 100" xml:space="preserve">
<g>
	<path fill="#FFFFFF" stroke="#010202" stroke-miterlimit="10" d="M50,26.213c-11.407,0-6.501,15.578-6.501,15.578
		c-1.84-2.085-13.369-11.776-22.691-6.256c-11.04,6.501-10.794,14.72-6.992,20.363c3.802,5.642,11.039,11.162,11.039,11.162
		c-0.981,3.066,1.84,8.586,1.84,8.586c-1.84,2.085-2.085,7.605-2.085,7.605c-0.736,0.123-0.981,2.452-0.981,2.452
		C33.686,89.875,50,89.998,50,89.998s16.315-0.123,26.373-4.294c0,0-0.245-2.329-0.981-2.452c0,0-0.245-5.521-2.084-7.605
		c0,0,2.82-5.52,1.839-8.586c0,0,7.237-5.521,11.04-11.162c3.803-5.643,4.049-13.861-6.992-20.363
		c-9.322-5.52-20.853,4.171-22.692,6.256C56.501,41.792,61.406,26.213,50,26.213z"/>
	<path fill="#FFFFFF" stroke="#010202" stroke-miterlimit="10" d="M50,63.135c0,0-1.104-9.567,6.501-21.343"/>
	<path fill="#FFFFFF" stroke="#010202" stroke-miterlimit="10" d="M49.734,63.135c0,0,1.104-9.567-6.501-21.343"/>
	<path fill="#FFFFFF" stroke="#010202" stroke-miterlimit="10" d="M24.854,67.061c0,0,21.507-9.037,50.292,0"/>
	<path fill="#FFFFFF" stroke="#010202" stroke-miterlimit="10" d="M24.519,83.303c0,0,21.793-9.037,50.962,0"/>
	<path fill="#FFFFFF" stroke="#010202" stroke-miterlimit="10" d="M26.649,75.693c0,0,20-9.037,46.77,0"/>
	<line fill="#FFFFFF" stroke="#010202" stroke-miterlimit="10" x1="50" y1="26.213" x2="50" y2="9.981"/>
	<line fill="#FFFFFF" stroke="#010202" stroke-miterlimit="10" x1="43.805" y1="16.359" x2="56.193" y2="16.359"/>
</g>
</svg>
