<?xml version="1.0" encoding="utf-8"?>
<!-- Generator: Adobe Illustrator 16.0.0, SVG Export Plug-In . SVG Version: 6.00 Build 0)  -->
<!DOCTYPE svg PUBLIC "-//W3C//DTD SVG 1.1 Tiny//EN" "http://www.w3.org/Graphics/SVG/1.1/DTD/svg11-tiny.dtd">
<svg version="1.1" baseProfile="tiny" id="Calque_1"
	 xmlns="http://www.w3.org/2000/svg" xmlns:xlink="http://www.w3.org/1999/xlink" x="0px" y="0px" width="100px" height="100px"
	 viewBox="0 0 100 100" xml:space="preserve">
<g>
	<path fill="#FFFFFF" stroke="#010202" stroke-linejoin="round" stroke-miterlimit="10" d="M49.959,88.748
		c-19.03,0-25.025-4.879-25.025-4.879c6.076-15.67-4.077-24.785-4.077-24.785L15.586,28.87l14.866,28.614l1.919-35.704
		l11.034,33.146l6.555-36.118c-2.086,0-3.777-1.691-3.777-3.778c0-2.086,1.691-3.778,3.777-3.778s3.777,1.691,3.777,3.778
		c0,2.087-1.69,3.778-3.777,3.778l6.555,36.118L67.549,21.78l1.918,35.704L84.332,28.87l-5.27,30.214c0,0-10.154,9.115-4.078,24.785
		C74.984,83.869,68.99,88.748,49.959,88.748z"/>
	<circle fill="#FFFFFF" stroke="#010202" stroke-miterlimit="10" cx="68.7" cy="18.002" r="3.778"/>
	<circle fill="#FFFFFF" stroke="#010202" stroke-miterlimit="10" cx="86.149" cy="25.558" r="3.778"/>
	<path fill="#FFFFFF" stroke="#010202" stroke-linejoin="round" stroke-miterlimit="10" d="M74.984,83.869
		c0,0-8.234-6.057-25.025-6.057"/>
	<path fill="#FFFFFF" stroke="#010202" stroke-miterlimit="10" d="M73.102,75.711c0,0-5.092-4.914-23.142-4.914"/>
	<path fill="#FFFFFF" stroke="#010202" stroke-miterlimit="10" d="M73.893,68.023c0,0-5.883-4.422-23.933-4.422"/>
	<path fill="none" stroke="#010202" stroke-miterlimit="10" d="M79.062,59.084c0,0-4.301-2.561-9.596-1.6
		c-3.617-3.178-8.736-3.86-12.952-2.559c0,0-2.957-3.078-6.555-3.078"/>
	<circle fill="#FFFFFF" stroke="#010202" stroke-miterlimit="10" cx="31.219" cy="18.002" r="3.778"/>
	<circle fill="#FFFFFF" stroke="#010202" stroke-miterlimit="10" cx="13.77" cy="25.558" r="3.778"/>
	<path fill="#FFFFFF" stroke="#010202" stroke-linejoin="round" stroke-miterlimit="10" d="M24.935,83.869
		c0,0,8.235-6.057,25.025-6.057"/>
	<path fill="#FFFFFF" stroke="#010202" stroke-miterlimit="10" d="M26.818,75.711c0,0,5.092-4.914,23.141-4.914"/>
	<path fill="#FFFFFF" stroke="#010202" stroke-miterlimit="10" d="M26.027,68.023c0,0,5.883-4.422,23.933-4.422"/>
	<path fill="none" stroke="#010202" stroke-miterlimit="10" d="M20.858,59.084c0,0,4.298-2.561,9.594-1.6
		c3.617-3.178,8.736-3.86,12.953-2.559c0,0,2.957-3.078,6.555-3.078"/>
</g>
</svg>
