<?xml version="1.0" encoding="utf-8"?>
<!-- Generator: Adobe Illustrator 16.0.0, SVG Export Plug-In . SVG Version: 6.00 Build 0)  -->
<!DOCTYPE svg PUBLIC "-//W3C//DTD SVG 1.1 Tiny//EN" "http://www.w3.org/Graphics/SVG/1.1/DTD/svg11-tiny.dtd">
<svg version="1.1" baseProfile="tiny" id="Calque_1"
	 xmlns="http://www.w3.org/2000/svg" xmlns:xlink="http://www.w3.org/1999/xlink" x="0px" y="0px" width="100px" height="100px"
	 viewBox="0 0 100 100" xml:space="preserve">
<g>
	<polygon fill="#FFFFFF" stroke="#010202" stroke-miterlimit="10" points="77.162,81.352 77.162,71.621 68.107,62.973 
		68.107,32.973 77.162,24.324 77.162,10 68.107,10 68.107,17.162 54.527,17.162 54.527,10 45.473,10 45.473,17.162 31.892,17.162 
		31.892,10 22.838,10 22.838,24.324 31.892,32.973 31.892,62.973 22.838,71.621 22.838,81.352 15.405,81.352 15.405,90 84.594,90 
		84.594,81.352 	"/>
	<line fill="#FFFFFF" stroke="#010202" stroke-miterlimit="10" x1="22.838" y1="24.324" x2="77.162" y2="24.324"/>
	<line fill="#FFFFFF" stroke="#010202" stroke-miterlimit="10" x1="68.107" y1="32.973" x2="31.892" y2="32.973"/>
	<line fill="#FFFFFF" stroke="#010202" stroke-miterlimit="10" x1="31.892" y1="62.973" x2="68.107" y2="62.973"/>
	<line fill="#FFFFFF" stroke="#010202" stroke-miterlimit="10" x1="22.838" y1="71.621" x2="77.162" y2="71.621"/>
	<line fill="#FFFFFF" stroke="#010202" stroke-miterlimit="10" x1="22.838" y1="81.352" x2="77.162" y2="81.352"/>
</g>
</svg>
