<?xml version="1.0" encoding="utf-8"?>
<!-- Generator: Adobe Illustrator 17.0.0, SVG Export Plug-In . SVG Version: 6.00 Build 0)  -->
<!DOCTYPE svg PUBLIC "-//W3C//DTD SVG 1.1//EN" "http://www.w3.org/Graphics/SVG/1.1/DTD/svg11.dtd">
<svg version="1.1" id="Layer_1" xmlns="http://www.w3.org/2000/svg" xmlns:xlink="http://www.w3.org/1999/xlink" x="0px" y="0px"
	 width="90px" height="90px" viewBox="0 0 90 90" enable-background="new 0 0 90 90" xml:space="preserve">
<g>
	<g>
		<path fill="#FFFFFF" d="M43.928,63.407l-0.227-0.004c-3.005-0.096-11.584-5.754-12.931-8.527
			c-0.056-0.127-3.668-8.52-5.421-10.871c-1.235-1.655-2.267-4.254-1.461-6.583l4.819-13.924c0.596-1.722,1.684-4.012,4.245-4.012
			c0.533,0,1.111,0.107,1.718,0.316c0.184,0.063,0.344,0.18,0.461,0.334c0.324,0.425,3.12,4.22,2.139,7.204l-1.333,5.93
			c0.571,1.318,1.316,1.318,1.607,1.318c0.357,0,0.659-0.102,0.932-0.318l0.541-21.256c0.106-3.401,2.434-5.847,5.514-5.746
			l0.096,0.003c3.089,0.097,5.251,2.665,5.144,6.105l0.009,11.247l2.61-6.453c0.985-2.577,3.081-4.253,5.33-4.253
			c0.58,0,1.161,0.11,1.727,0.327l0.089,0.034c3.096,1.187,3.961,5.151,2.827,8.11l-0.263,0.741c1.211-0.101,2.408,0.273,3.41,1.079
			l0.076,0.061c2.393,1.922,2.529,5.046,0.338,7.774l-1.15,1.561c0.776,0.073,1.519,0.392,2.215,0.951l0.076,0.061
			c1.575,1.264,2.826,3.549-0.133,7.253L54.269,60.216c-0.014,0.02-0.027,0.039-0.043,0.057
			C52.396,62.554,45.248,63.407,43.928,63.407z M32.955,21.457c-0.719,0-1.564,0.319-2.383,2.685l-4.819,13.924
			c-0.556,1.604,0.287,3.566,1.178,4.761c1.891,2.536,5.481,10.876,5.633,11.23c1.022,2.104,8.886,7.303,11.199,7.376l0.166,0.004
			c1.916,0,7.623-1.05,8.742-2.373l12.661-18.344c0.014-0.02,0.027-0.039,0.043-0.057c2.099-2.613,1.409-3.747,0.458-4.511
			l-0.076-0.061c-0.944-0.759-1.845-0.704-2.953,0.116c-0.391,0.291-0.937,0.25-1.282-0.096c-0.345-0.344-0.386-0.889-0.097-1.281
			l2.939-3.99c1.199-1.495,1.807-3.577-0.01-5.036l-0.075-0.061c-0.974-0.782-2.132-0.864-3.296-0.262
			c-0.357,0.185-0.795,0.134-1.101-0.133c-0.304-0.266-0.416-0.692-0.281-1.073l0.915-2.573c0.785-2.05,0.282-4.833-1.682-5.586
			l-0.089-0.034c-0.342-0.131-0.687-0.197-1.024-0.197c-1.426,0-2.799,1.179-3.497,3.004l-4.513,11.157
			c-0.176,0.436-0.637,0.687-1.101,0.598c-0.463-0.09-0.797-0.495-0.798-0.967l-0.011-16.332c0.061-1.943-0.926-4.033-3.233-4.105
			l-0.218-0.005c-2.239,0-3.302,1.925-3.361,3.833l-0.552,21.655c-0.006,0.234-0.096,0.459-0.252,0.633
			c-0.705,0.786-1.618,1.201-2.64,1.201c-0.935,0-2.641-0.373-3.559-2.867c-0.065-0.179-0.078-0.371-0.036-0.556l1.41-6.277
			c0.008-0.036,0.018-0.071,0.03-0.107c0.54-1.561-0.899-4.103-1.647-5.175C33.456,21.497,33.192,21.457,32.955,21.457z"/>
	</g>
	<g>
		<path fill="#FFFFFF" d="M44.495,8.253l0.096,0.003c0.579,0.018,0.835,0.144,1.576,0.351V6.584c0-0.793-0.633-1.51-1.424-1.51
			h-0.087c-0.793,0-1.451,0.718-1.451,1.51v1.818C43.944,8.294,44.038,8.239,44.495,8.253z"/>
	</g>
	<g>
		<g>
			<path fill="#FFFFFF" d="M35.796,23.29V11.106c0-4.959,3.929-8.995,8.889-8.995c4.959,0,8.889,4.036,8.889,8.995v6.838
				c0.741-0.77,0.741-1.445,1.481-1.963v-5.724c0-5.614-4.756-10.182-10.37-10.182c-5.615,0-10.37,4.568-10.37,10.182v10.48
				C34.315,20.756,35.056,21.867,35.796,23.29z"/>
		</g>
		<g>
			<path fill="#FFFFFF" d="M35.947,34.975c0.416,0.367,0.939,0.599,1.6,0.599c0.412,0,0.773-0.089,1.092-0.244
				c-1.636-1.555-2.679-3.728-2.787-6.155l-0.87,3.866C35.235,33.723,35.559,34.37,35.947,34.975z"/>
		</g>
	</g>
</g>
</svg>
