<?xml version="1.0" encoding="utf-8"?>
<!-- Generator: Adobe Illustrator 16.0.0, SVG Export Plug-In . SVG Version: 6.00 Build 0)  -->
<!DOCTYPE svg PUBLIC "-//W3C//DTD SVG 1.1 Tiny//EN" "http://www.w3.org/Graphics/SVG/1.1/DTD/svg11-tiny.dtd">
<svg version="1.1" baseProfile="tiny" id="Calque_1"
	 xmlns="http://www.w3.org/2000/svg" xmlns:xlink="http://www.w3.org/1999/xlink" x="0px" y="0px" width="100px" height="100px"
	 viewBox="0 0 100 100" xml:space="preserve">
<path fill="#010202" stroke="#FFFFFF" stroke-miterlimit="10" d="M50,10.033c-2.686,0-4.865,2.179-4.865,4.865
	s2.179,4.865,4.865,4.865c0,0-10.407,7.759-16.195,12.317c-5.789,4.557-8.375,13.424,3.818,26.232c0,0-3.572,5.174-1.601,9.484
	c0,0-3.695,4.68,0,6.035c3.695,1.354,8.129,1.477,8.129,1.477s-1.848,5.42-8.499,5.42s-18.105-3.202-25.002,0.863l4.188,8.375
	c0,0,8.498-3.941,16.873-0.986C40.086,91.938,50,81.346,50,81.346s9.914,10.592,18.289,7.635c8.375-2.955,16.873,0.986,16.873,0.986
	l4.188-8.375c-6.896-4.065-18.351-0.863-25-0.863c-6.651,0-8.499-5.42-8.499-5.42s4.434-0.122,8.129-1.477
	c3.694-1.355,0-6.035,0-6.035c1.972-4.311-1.601-9.484-1.601-9.484c12.191-12.809,9.605-21.676,3.816-26.232
	C60.408,27.522,50,19.763,50,19.763c2.687,0,4.865-2.178,4.865-4.865S52.687,10.033,50,10.033z"/>
<line fill="none" stroke="#FFFFFF" stroke-miterlimit="10" x1="50" y1="33.065" x2="50" y2="48.856"/>
<line fill="none" stroke="#FFFFFF" stroke-miterlimit="10" x1="42.104" y1="40.961" x2="57.896" y2="40.961"/>
<path fill="none" stroke="#FFFFFF" stroke-miterlimit="10" d="M37.623,58.312c0,0,10.469-2.462,24.756,0"/>
<path fill="none" stroke="#FFFFFF" stroke-miterlimit="10" d="M36.021,67.797c0,0,13.301-1.232,27.958,0"/>
<path fill="none" stroke="#FFFFFF" stroke-miterlimit="10" d="M44.15,75.309c0,0,4.434,0.494,11.7,0"/>
<line fill="none" stroke="#FFFFFF" stroke-miterlimit="10" x1="50" y1="81.346" x2="50" y2="75.529"/>
</svg>
