<?xml version="1.0" encoding="utf-8"?>
<!-- Generator: Adobe Illustrator 16.0.0, SVG Export Plug-In . SVG Version: 6.00 Build 0)  -->
<!DOCTYPE svg PUBLIC "-//W3C//DTD SVG 1.1 Tiny//EN" "http://www.w3.org/Graphics/SVG/1.1/DTD/svg11-tiny.dtd">
<svg version="1.1" baseProfile="tiny" id="Calque_1"
	 xmlns="http://www.w3.org/2000/svg" xmlns:xlink="http://www.w3.org/1999/xlink" x="0px" y="0px" width="100px" height="100px"
	 viewBox="0 0 100 100" xml:space="preserve">
<g>
	<path fill="#010202" stroke="#FFFFFF" stroke-miterlimit="10" d="M49.942,26.224c-11.407,0-6.501,15.578-6.501,15.578
		c-1.84-2.085-13.369-11.776-22.691-6.256c-11.04,6.501-10.794,14.72-6.992,20.363c3.802,5.642,11.039,11.162,11.039,11.162
		c-0.981,3.066,1.84,8.586,1.84,8.586c-1.84,2.085-2.085,7.605-2.085,7.605c-0.736,0.123-0.981,2.452-0.981,2.452
		c10.059,4.171,26.372,4.294,26.372,4.294s16.315-0.123,26.372-4.294c0,0-0.244-2.329-0.98-2.452c0,0-0.246-5.521-2.084-7.605
		c0,0,2.82-5.52,1.838-8.586c0,0,7.238-5.521,11.041-11.162c3.803-5.643,4.049-13.861-6.992-20.363
		c-9.322-5.52-20.854,4.171-22.693,6.256C56.443,41.802,61.35,26.224,49.942,26.224z"/>
	<path fill="#010202" stroke="#FFFFFF" stroke-miterlimit="10" d="M49.942,63.146c0,0-1.104-9.567,6.501-21.343"/>
	<path fill="#010202" stroke="#FFFFFF" stroke-miterlimit="10" d="M49.921,63.146c0,0,1.104-9.566-6.501-21.343"/>
	<path fill="#010202" stroke="#FFFFFF" stroke-miterlimit="10" d="M24.797,67.071c0,0,21.507-9.037,50.291,0"/>
	<path fill="#010202" stroke="#FFFFFF" stroke-miterlimit="10" d="M24.462,83.313c0,0,21.793-9.037,50.962,0"/>
	<path fill="#010202" stroke="#FFFFFF" stroke-miterlimit="10" d="M26.592,75.704c0,0,20-9.037,46.769,0"/>
	<line fill="#010202" stroke="#FFFFFF" stroke-miterlimit="10" x1="49.942" y1="26.224" x2="49.942" y2="9.992"/>
	<line fill="#010202" stroke="#FFFFFF" stroke-miterlimit="10" x1="43.748" y1="16.37" x2="56.137" y2="16.37"/>
</g>
</svg>
