<?xml version="1.0" encoding="utf-8"?>
<!-- Generator: Adobe Illustrator 16.0.0, SVG Export Plug-In . SVG Version: 6.00 Build 0)  -->
<!DOCTYPE svg PUBLIC "-//W3C//DTD SVG 1.1 Tiny//EN" "http://www.w3.org/Graphics/SVG/1.1/DTD/svg11-tiny.dtd">
<svg version="1.1" baseProfile="tiny" id="Calque_1"
	 xmlns="http://www.w3.org/2000/svg" xmlns:xlink="http://www.w3.org/1999/xlink" x="0px" y="0px" width="100px" height="100px"
	 viewBox="0 0 100 100" xml:space="preserve">
<path fill="none" stroke="#FFFFFF" stroke-miterlimit="10" d="M27.121,79.045"/>
<path fill="#010202" stroke="#FFFFFF" stroke-miterlimit="10" d="M33.971,89.951h55.325c0,0,1.984-70.087-37.958-70.583
	c0,0-3.722-9.18-5.955-9.18c-2.232,0-6.699,9.427-6.699,9.427S30.001,8.7,27.024,10.188c-2.977,1.488,1.241,12.157,1.985,12.405
	s-7.939,4.962-7.691,14.141c0,5.955-8.187,14.637-9.427,19.6c-1.241,4.962-3.97,13.646,7.442,13.893
	c1.737,0.249,5.21,5.211,7.939-0.496c2.729-5.705,9.675-12.156,16.126-13.645c6.45-1.489,9.18-8.187,9.18-8.187
	S54.615,56.83,50,62.784C45.383,68.738,32.979,79.902,33.971,89.951z"/>
<ellipse transform="matrix(-0.4567 0.8896 -0.8896 -0.4567 78.0607 71.5504)" fill="#010202" stroke="#FFFFFF" stroke-miterlimit="10" cx="17.183" cy="59.611" rx="2.316" ry="1.488"/>
<ellipse transform="matrix(-0.4568 0.8895 -0.8895 -0.4568 76.3378 24.3156)" fill="#FFFFFF" cx="30.745" cy="35.464" rx="2.316" ry="1.489"/>
<path fill="#FFFFFF" d="M27.33,38.822c-0.059,0.131-0.178-0.284-0.253-0.437c-0.637-1.293-0.595-3.081,0.248-4.72
	c1.254-2.444,3.811-3.634,5.711-2.66c0.475,0.244,0.863,0.6,1.16,1.035c0,0-0.358,0.662-2.558,1.686
	C29.438,34.751,28.215,36.823,27.33,38.822z"/>
<path fill="none" stroke="#FFFFFF" stroke-miterlimit="10" d="M34.384,21.766c0,0,4.962-4.135,6.616-0.662"/>
<path fill="none" stroke="#FFFFFF" stroke-miterlimit="10" d="M52.578,47.899c0,0,1.818-2.925,1.984-8.161"/>
<path fill="none" stroke="#FFFFFF" stroke-miterlimit="10" d="M23.633,63.776c0,0-1.407,5.429-4.755,6.437"/>
</svg>
