<?xml version="1.0" encoding="utf-8"?>
<!-- Generator: Adobe Illustrator 16.0.0, SVG Export Plug-In . SVG Version: 6.00 Build 0)  -->
<!DOCTYPE svg PUBLIC "-//W3C//DTD SVG 1.1 Tiny//EN" "http://www.w3.org/Graphics/SVG/1.1/DTD/svg11-tiny.dtd">
<svg version="1.1" baseProfile="tiny" id="Calque_1"
	 xmlns="http://www.w3.org/2000/svg" xmlns:xlink="http://www.w3.org/1999/xlink" x="0px" y="0px" width="100px" height="100px"
	 viewBox="0 0 100 100" xml:space="preserve">
<g>
	<path fill="#010202" stroke="#FFFFFF" stroke-miterlimit="10" d="M50,10c-4.354,0-8.708,3.503-8.708,8.979
		c0,5.102,3.81,8.435,3.81,8.435c-3.266,0-13.061,5.624-13.061,14.694c0,8.073,7.619,12.789,7.619,12.789
		c-3.266,0.544-13.333,8.708-17.687,17.96c-4.354,9.251,0,17.143,0,17.143H50h0h28.027c0,0,4.354-7.892,0-17.143
		c-4.354-9.252-14.422-17.416-17.688-17.96c0,0,7.619-4.716,7.619-12.789c0-9.07-9.795-14.694-13.061-14.694
		c0,0,3.809-3.333,3.809-8.435C58.707,13.503,54.354,10,50,10L50,10z"/>
</g>
</svg>
