<?xml version="1.0" encoding="utf-8"?>
<!-- Generator: Adobe Illustrator 18.1.0, SVG Export Plug-In . SVG Version: 6.00 Build 0)  -->
<svg version="1.1" xmlns="http://www.w3.org/2000/svg" xmlns:xlink="http://www.w3.org/1999/xlink" x="0px" y="0px"
	 viewBox="0 0 1024 768" enable-background="new 0 0 1024 768" xml:space="preserve">
<g id="Fond_bleu">
	<linearGradient id="Fond_2_" gradientUnits="userSpaceOnUse" x1="512" y1="-2.298657e-08" x2="512" y2="768">
		<stop  offset="0" style="stop-color:#CBA68C;stop-opacity:0.8"/>
		<stop  offset="0.3772" style="stop-color:#95A1A8;stop-opacity:0.8"/>
		<stop  offset="1" style="stop-color:#3498DB;stop-opacity:0.8"/>
	</linearGradient>
	<rect id="Fond" fill="url(#Fond_2_)" stroke="#B0CBD0" stroke-miterlimit="10" width="1024" height="768"/>
	<path id="Nuage1" fill="#FBFBFB" d="M902.3,403.9c-8.5-19.5-27.9-33.2-50.6-33.2c-10.6,0-20.6,3-29,8.2c-8.2-18.2-26.4-31-47.7-31
		c-14.3,0-27.3,5.8-36.7,15.1c-4.2-3.3-9.4-5.2-15.2-5.2c-13.6,0-24.6,11-24.6,24.6c0,3.7,0.8,7.3,2.3,10.5c-1.6-0.2-3.3-0.2-5-0.2
		c-28.7,0-51.9,23.2-51.9,51.9s23.2,51.9,51.9,51.9c4.2,0,8.3-0.5,12.2-1.5c6.5,7,15.7,11.3,26,11.3c10.9,0,20.7-4.9,27.2-12.6
		c11.3,13.6,28.4,22.3,47.5,22.3c10.5,0,20.4-2.6,29-7.3c11.3,10.7,26.5,17.3,43.2,17.3c34.7,0,62.9-28.1,62.9-62.9
		C944,435.9,926.6,412.7,902.3,403.9z"/>
	<path id="Nuage2" fill="#FBFBFB" d="M274.8,523.6c-4.2,0-8.3,0.7-12.1,1.9c-12.9-22.6-37.2-37.9-65.2-37.9c-16,0-30.8,5-43,13.6
		c-8-19.4-27-33-49.3-33c-29.4,0-53.2,23.8-53.2,53.2c0,1.3,0.1,2.5,0.1,3.8c-15,0.3-27.1,12.6-27.1,27.7c0,8.4,3.8,16,9.7,21
		c-2.4,5.5-3.7,11.6-3.7,17.9c0,25.3,20.5,45.7,45.7,45.7c11.1,0,21.3-4,29.2-10.6c5.9,12,18.3,20.3,32.6,20.3
		c12.4,0,23.3-6.2,29.8-15.6c8.9,3.8,18.7,5.8,29,5.8c3,0,5.9-0.2,8.8-0.5c7.1,8.6,17.8,14,29.8,14c21.3,0,38.6-17.3,38.6-38.6
		c0-3.2-0.4-6.4-1.2-9.4c0.4,0,0.8,0,1.2,0c22,0,39.7-17.8,39.7-39.7S296.8,523.6,274.8,523.6z"/>
	<g id="Soleil">
		<defs>
			<rect id="Fond_1_" x="0.9" width="1024" height="768"/>
		</defs>
		<clipPath id="Fond_3_">
			<use xlink:href="#Fond_1_"  overflow="visible"/>
		</clipPath>
		<linearGradient id="SVGID_1_" gradientUnits="userSpaceOnUse" x1="954.8105" y1="-138.8824" x2="954.8105" y2="237.5988">
			<stop  offset="0" style="stop-color:#E9463B"/>
			<stop  offset="0.3727" style="stop-color:#E8483D"/>
			<stop  offset="0.5502" style="stop-color:#E65043"/>
			<stop  offset="0.6864" style="stop-color:#E25D4E"/>
			<stop  offset="0.8016" style="stop-color:#DC6F5E"/>
			<stop  offset="0.9022" style="stop-color:#D58772"/>
			<stop  offset="0.9934" style="stop-color:#CCA48A"/>
			<stop  offset="1" style="stop-color:#CBA68C"/>
		</linearGradient>
		<circle clip-path="url(#Fond_3_)" fill="url(#SVGID_1_)" cx="954.8" cy="49.4" r="188.2"/>
	</g>
	<path id="GrosNuage" fill="#FBFBFB" d="M993.8,866.5c0-0.6,0-1.2,0-1.8c0-19.1-15.4-34.5-34.5-34.5c-0.9,0-1.8,0-2.7,0.1
		c-5.9-18.8-23.4-32.4-44.1-32.4c-18.7,0-34.7,11.1-42,27c-7.5-10.4-19.7-17.1-33.4-17.1c-11,0-21,4.3-28.4,11.4
		c-5.4-4.1-12.2-6.6-19.6-6.6c-13.8,0-25.6,8.7-30.2,20.9c-12.2-20.3-34.4-33.9-59.8-33.9c-23.6,0-44.4,11.7-57,29.6
		c-5.6-17.9-22.3-30.9-42.1-30.9c-13.3,0-25.2,5.9-33.3,15.3c-6.2-3.5-13.3-5.4-21-5.4c-6.8,0-13.1,1.6-18.8,4.3
		c-1.1-16.2-14.5-29.1-31-29.1c-8.8,0-16.7,3.7-22.4,9.5c-5.3-10.9-16.4-18.4-29.4-18.4c-13.1,0-24.4,7.7-29.6,18.8
		c-10-11.5-24.8-18.8-41.2-18.8c-16.4,0-31,7.2-41.1,18.6c-6.6-4.1-14.3-6.6-22.7-6.6c-3.1,0-6,0.3-8.9,0.9
		c-5.8-6.6-14.4-10.8-23.9-10.8c-10.8,0-20.4,5.4-26.2,13.7c-5.6-7.1-14.3-11.7-24-11.7c-7.8,0-14.9,2.9-20.3,7.7
		c-1.3-0.1-2.6-0.2-4-0.2c-12.2,0-22.9,6.2-29.3,15.6c-6.5-6-15.2-9.6-24.7-9.6c-5,0-9.7,1-14,2.8c-5.6-4.1-12.6-6.5-20.1-6.5
		c-8.2,0-15.8,2.9-21.7,7.8c-3.8-1.6-8-2.5-12.4-2.5c-9.2,0-17.5,4-23.3,10.3c-5.6-3.5-12.2-5.5-19.3-5.5
		c-20.2,0-36.6,16.4-36.6,36.6c0,9.4,3.5,17.9,9.3,24.4c-15.3,8.9-24.3,19.5-24.3,31c0,7.7,4,15,11.4,21.7c-0.9,3.1-1.4,6.4-1.4,9.7
		c0,19.5,15.8,35.4,35.4,35.4c10,0,19-4.1,25.4-10.8c2.9,1.9,6.3,3.1,10.1,3.1c0.8,0,1.5-0.1,2.3-0.2c7.3,14.8,29.9,25.7,56.8,25.7
		c21.4,0,40.1-6.9,50.5-17.1c4.4,9.7,14.2,16.5,25.6,16.5c6.9,0,13.2-2.5,18-6.6c5.3,9.4,15.3,15.8,26.9,15.8
		c15.6,0,28.5-11.6,30.5-26.7c7,10.2,18.8,16.9,32.1,16.9c10.6,0,20.1-4.2,27.1-11c11.9,7.7,26,12.3,41.3,12.3
		c19.2,0,36.7-7.2,50-18.9c8.7,6.9,19.6,11,31.5,11c11.3,0,21.8-3.7,30.2-10c3.9,15,17.6,26.1,33.8,26.1c13.7,0,25.6-7.9,31.3-19.4
		c2.1,0.1,4.2,0.1,6.3,0.1c2.1,0,4.1-0.1,6.1-0.1c9.2,13.5,24.7,22.5,42.3,22.5c13.4,0,25.6-5.2,34.7-13.6
		c4.9,3.9,11.1,6.3,17.8,6.3c7.5,0,14.3-2.9,19.4-7.7c6.3,3.3,13.5,5.3,21.1,5.3c12.6,0,24-5.2,32.2-13.6
		c4.8,12.4,16.8,21.2,30.8,21.2c11.9,0,22.4-6.3,28.2-15.8c4.7,1.9,9.9,3,15.4,3c16.6,0,30.9-9.8,37.4-23.9
		c4.9,5.7,12.1,9.3,20.2,9.3c6.9,0,13.2-2.6,17.9-6.9c6.1,8.6,16.1,14.2,27.5,14.2c18.6,0,33.7-15.1,33.7-33.7
		c0-1.5-0.1-3.1-0.3-4.6c3.5-0.6,6.8-1.2,10.1-1.9c6.7,9.4,17.6,15.5,30,15.5c20.3,0,36.7-16.5,36.7-36.7
		C1022.4,884.9,1010.2,870.2,993.8,866.5z"/>
</g>
<g id="Rocky">
	<g>
		<path fill="#63787C" stroke="#B3B3B3" stroke-width="2" stroke-miterlimit="10" d="M464.5,397.2c-1.7-5.7,1.6-11.7,7.4-13.4
			l80.6-23.4c5.6-1.6,11.4,1.5,13.2,7c-1-3.9-3.5-7.4-7.2-9.4c0-1,0-2-0.2-3l-4.3-23.5c-1.4-7.4-7.9-12.5-15.2-12.3
			c-5.9-4.7-13.7-6.9-21.7-5.4l-33.3,6.2c-5.4,1-10.2,3.6-13.8,7.1c-6.8-5.1-16.5-3.8-21.7,2.9l-13.9,18c-1.8,2.3-2.8,5-3.2,7.8
			c-5.6,3-8.8,9.4-7.6,16l0.2,1c-1.3,1.3-2.4,2.8-3.3,4.4c-6.2,2.8-10,9.5-8.6,16.5l4.4,23.5c1.5,8.2,9.1,13.6,17.3,12.1l-0.1,0.1
			l5.1,12.7c3.9,9.8,15.4,14.4,25.2,10.5l16.4-6.5c2.2,0.6,4.6,0.8,7,0.4l33.9-6.3c1.4-0.3,2.6-0.7,3.8-1.3l0.8,0.3
			c7.8,2.9,16.4-1,19.4-8.7l4.5-11.9l5.1-2c1.1-0.4,2.1-1,3.1-1.6C533.1,416.8,446.3,421.8,464.5,397.2z"/>
		<g id="Yeux">
			<circle id="OeilG" fill="#F2F2F2" stroke="#B5B5B5" stroke-width="2" stroke-miterlimit="10" cx="460.5" cy="358.2" r="16.3"/>
			<circle id="OeilD" fill="#F2F2F2" stroke="#B5B5B5" stroke-width="2" stroke-miterlimit="10" cx="520.4" cy="338.7" r="16.3"/>
			<circle id="PupilleD" fill="#B3B3B3" cx="519.1" cy="331.5" r="6.2"/>
			<circle id="PupilleG" fill="#B3B3B3" cx="456.8" cy="354.5" r="7"/>
		</g>
		<g id="Bouche">
			<defs>
				<path id="SVGID_2_" d="M564.1,414.9c0,0-120.5,11.4-99.4-17.2c-1.7-5.7,1.6-11.7,7.4-13.4l80.6-23.4c5.7-1.7,11.7,1.6,13.4,7.4
					l5.5,33.2C573.1,407.3,569.8,413.3,564.1,414.9"/>
			</defs>
			<clipPath id="SVGID_3_">
				<use xlink:href="#SVGID_2_"  overflow="visible"/>
			</clipPath>
			<path id="Langue" clip-path="url(#SVGID_3_)" fill="#E65151" d="M460.5,394.3c0,0,100.1-14.7,99.3-8.5
				c-1.4,10.5-8.7,13-17.9,18.3c-9.2,5.3-81.3,2.1-80.1-1.3C463,399.4,460.5,394.3,460.5,394.3L460.5,394.3"/>
			<path id="Dents_haut" clip-path="url(#SVGID_3_)" fill="#F2F2F2" stroke="#D6D8D8" stroke-miterlimit="10" d="M563.9,362.8
				l-6.5-6.2c-1-1-2.7-0.9-3.7,0.1l-2.8,2.9c-1-1.8-3.3-2.5-5.2-1.5l-9.2,4.8c-1.1,0.6-1.8,1.6-2,2.7c-0.6-1.2-1.9-1.8-3.1-1.3
				l-9.8,3.2c-1.4,0.4-2.1,1.9-1.7,3.3l0.2,0.7c-0.5-1.1-1.8-1.7-3-1.3l-9.9,2.9c-1.4,0.4-2,1.7-1.6,3.1l0.4,0.6l-0.3-1
				c-0.4-1.4-2.1-1.6-3.5-1.2l-9.9,2.9c-1.1,0.3-1.6,0.8-2.2,2l0-0.2c-0.4-1.4-1.5-1.8-2.8-1.4l-9.9,2.9c-1.4,0.4-2.1,1.4-1.7,2.7
				l0.2,0.6c-1.2-0.7-1.9-1.3-3-1l-9.9,2.9c-1.4,0.4-2.6,2-2.2,3.4l1.7,5.8c0.4,1.4,2.2,1.8,3.6,1.4l9.9-2.9
				c1.1-0.3,1.4-0.9,2.1-2.2l0.2,0.6c0.4,1.4,1.7,2.2,3.1,1.8l9-3.7c1.4-0.4,2.7-0.9,2.3-2.3l0-0.2c0.5,1.7,1.7,3.4,2.6,3.1
				l11.4-3.6c0.7-0.2,0.8-1.1,0.8-2v0c0,1.4,4.2,1.2,5.6,0.8l6.5-1.9c1.4-0.4,3.5-1.9,3.1-3.3l-0.3-0.9v0c0,1.4,1.2,1.8,2.6,1.3
				l11.7-3.4c1.4-0.4,1.2-1.9,0.8-3.2l-1.2-3.7l2.8,5.3c1,1.9,3.4,2.6,5.3,1.6l9.2-4.8c1.3-0.7,2-2,2.1-3.3l1,1c1,1,2.7,0.9,3.7-0.1
				l3.7-3.9C565,365.4,565,363.8,563.9,362.8z"/>
			<path id="Dents_bas" clip-path="url(#SVGID_3_)" fill="#F7F7F7" stroke="#D6D8D8" stroke-miterlimit="10" d="M556.2,408.5
				l-5.3,1.1c-1.3,0.3-2.2,1.5-2,2.9c-0.7-0.8-1.6-1.3-2.8-1.4l-10.3-0.6c-1.4-0.1-2.7,0.6-3.4,1.7c-0.4-0.4-0.9-0.7-1.5-0.8
				l-11.4-1.7c-1.2-0.1-2.2,0.8-2.3,2l0-0.4c0.2-1.4-2.9-2.9-4.3-3.1l-7.1-0.2c-1.3-0.1-3.3,0.1-3.8,1.1l0-0.3
				c0.1-1.4-0.9-2.7-2.4-2.8l-10.2-0.8c-0.8-0.1-1.6,0.3-2.1,0.9l0-0.1c0.2-1.4-0.8-2.7-2.2-2.9l-10.2-1.4c-0.7-0.1-1.3,0.1-1.8,0.4
				c0-1.1-0.8-2.1-1.9-2.4l-6.9-1.8c-1.4-0.4-2.8,0.5-3.2,1.9l-2,7.6c-0.4,1.4,0.5,2.8,1.9,3.2l6.9,1.8c1.4,0.4,2.8-0.5,3.2-1.8
				l-0.3,2.3c-0.2,1.4,0.8,2.7,2.2,2.9l10.2,1.4c1.3,0.2,2.6-0.7,2.9-2l-0.1,1.5c-0.1,1.4,0.9,2.7,2.4,2.8l10.2,0.8
				c1,0.1,1.9-0.4,2.4-1.2c0.1,1.2,1.1,2.2,2.3,2.3l10.2,1.1c1.4,0.2,2.7-0.9,2.9-2.3l0.9-8.4l-0.7,9.7c-0.1,1.2,0.8,2.3,2,2.4
				l11,0.9c0.8,0.1,1.4-0.3,1.9-0.8c0.3,1.7,1.8,3.1,3.6,3.2l10.3,0.6c2.1,0.1,4-1.5,4.1-3.7l0.4-7.3l1,4.7c0.3,1.4,1.7,2.3,3.1,2
				l5.3-1.1c1.4-0.3,2.3-1.7,2-3.1l-1.8-8.8C559,409.1,557.6,408.2,556.2,408.5z"/>
		</g>
	</g>
</g>
<g id="Sol">
	<g id="Herbe2">
		<path fill="#80AD7B" stroke="#80AD7B" stroke-width="2" stroke-miterlimit="10" d="M973,272.3c-32.7,112-45.7,158.8-40.9,151.2
			c-1-12.6,41.9-147.1,62.3-172.5C1014.9,225.7,981.3,244,973,272.3z"/>
		<path fill="#80AD7B" stroke="#80AD7B" stroke-width="2" stroke-miterlimit="10" d="M908,297.1c7.5,18.6,23.2,117.4,22.8,126.6
			c1.8,5.5-3-28.8-15-111C912.8,291.9,900.5,278.5,908,297.1z"/>
	</g>
	<g id="Herbe1">
		<path fill="#80AD7B" stroke="#80AD7B" stroke-width="2" stroke-miterlimit="10" d="M227,309.3c-32.7,112-45.7,158.8-40.9,151.2
			c-1-12.6,41.9-147.1,62.3-172.5C268.9,262.7,235.3,281,227,309.3z"/>
		<path fill="#80AD7B" stroke="#80AD7B" stroke-width="2" stroke-miterlimit="10" d="M162,334.1c7.5,18.6,23.2,117.4,22.8,126.6
			c1.8,5.5-3-28.8-15-111C166.8,328.9,154.5,315.5,162,334.1z"/>
	</g>
	<polygon id="Ground" fill="#CBA68C" stroke="#80AD7B" stroke-width="5" stroke-miterlimit="10" points="1028.9,464.1 1020.7,431.9 
		990.4,437.2 985.8,434.8 979.7,439.1 979.2,439.2 979.1,439.6 970.7,445.3 966.9,430.4 916,419.1 880.9,456.5 879,456.5 
		878.7,450.7 833.4,430.2 817.5,441.6 777.1,410.6 659.5,456.5 645.2,456.5 605,441.2 592.3,451.6 560.4,432.7 516.9,456.5 
		492.7,456.5 487,446.2 470.5,456.5 441.7,456.5 444.2,453.9 411.8,415 374.7,429.4 374,434.5 336.6,436.4 326.1,456.5 307.3,456.5 
		284,442.4 279.2,444.1 266.9,434.5 246.4,443.3 245.2,440.1 214.8,438.9 203.4,456.5 191.8,456.5 144.6,447.3 144.4,446 132.2,441 
		124.5,447.3 103.3,421 85.5,423.7 81.4,420.5 65.4,426.9 27.2,433 23.1,447 7.3,456.5 0.5,456.5 0.5,472.7 0.5,536.8 0.5,555.7 
		0.5,770.5 1025.5,770.5 1025.5,506.8 1025.5,506.8 	"/>
</g>
</svg>
