<?xml version="1.0" encoding="utf-8"?>
<!-- Generator: Adobe Illustrator 16.0.0, SVG Export Plug-In . SVG Version: 6.00 Build 0)  -->
<!DOCTYPE svg PUBLIC "-//W3C//DTD SVG 1.1//EN" "http://www.w3.org/Graphics/SVG/1.1/DTD/svg11.dtd">
<svg version="1.1" id="Calque_1" xmlns="http://www.w3.org/2000/svg" xmlns:xlink="http://www.w3.org/1999/xlink" x="0px" y="0px"
	 width="167.661px" height="138.981px" viewBox="0 0 167.661 138.981" enable-background="new 0 0 167.661 138.981"
	 xml:space="preserve">
<g>
	<path fill="#CA9E67" d="M2.708,133.375c-0.588,0-1.491-0.063-2.016-0.147v5.501H0v-15.327c0.903-0.105,1.827-0.168,2.813-0.168
		c3.968,0,5.921,2.268,5.921,4.892C8.734,131.212,6.488,133.375,2.708,133.375z M2.813,123.843c-0.735,0-1.428,0.063-2.121,0.126
		v8.65c0.546,0.084,1.344,0.168,2.016,0.168c3.296,0,5.312-1.806,5.312-4.661C8.021,125.816,6.257,123.843,2.813,123.843z"/>
	<path fill="#CA9E67" d="M22.006,138.729l-2.142-5.144h-7.559l-2.142,5.144H9.429l6.572-15.621h0.168l6.572,15.621H22.006z
		 M16.085,124.536l-3.527,8.44h7.034L16.085,124.536z"/>
	<path fill="#CA9E67" d="M34.144,138.729l-4.304-6.446c-0.504,0.105-1.05,0.147-1.638,0.147s-1.491-0.063-2.016-0.147v6.446h-0.693
		v-15.243c1.134-0.147,1.932-0.252,3.044-0.252c3.611,0,5.732,1.764,5.732,4.514c0,2.058-1.365,3.737-3.758,4.388l4.451,6.593
		H34.144z M28.538,123.843c-0.861,0-1.428,0.063-2.352,0.189v7.643c0.546,0.084,1.344,0.168,2.016,0.168
		c3.296,0,5.354-1.575,5.354-4.094C33.556,125.459,31.855,123.843,28.538,123.843z"/>
	<path fill="#CA9E67" d="M49.2,138.729l-2.142-5.144H39.5l-2.142,5.144h-0.735l6.572-15.621h0.168l6.572,15.621H49.2z
		 M43.279,124.536l-3.527,8.44h7.034L43.279,124.536z"/>
	<path fill="#CA9E67" d="M52.688,138.729v-15.39h0.693v14.781h7.685v0.609H52.688z"/>
	<path fill="#CA9E67" d="M63.146,138.729v-15.39h0.693v14.781h7.685v0.609H63.146z"/>
	<path fill="#CA9E67" d="M85.025,138.729l-2.142-5.144h-7.559l-2.142,5.144h-0.735l6.572-15.621h0.168l6.572,15.621H85.025z
		 M79.104,124.536l-3.527,8.44h7.034L79.104,124.536z"/>
	<path fill="#CA9E67" d="M99.011,138.729l-5.249-7.307l-5.249,7.307h-0.819l5.69-7.811l-5.522-7.58h0.819l5.081,7.076l5.081-7.076
		h0.819l-5.522,7.58l5.69,7.811H99.011z"/>
	<path fill="#CA9E67" d="M110.352,138.981c-1.554,0-3.107-0.546-4.472-1.428l0.336-0.567c1.281,0.819,2.667,1.386,4.241,1.386
		c2.1,0,3.905-1.302,3.905-3.317c0-2.226-1.848-2.981-3.695-3.821c-2.1-0.945-4.01-1.911-4.01-4.304
		c0-2.226,1.848-3.842,4.535-3.842c1.386,0,2.604,0.441,3.506,1.05l-0.357,0.567c-0.798-0.546-1.932-1.008-3.233-1.008
		c-2.205,0-3.779,1.344-3.779,3.149c0,2.247,1.869,2.981,3.716,3.821c2.1,0.945,3.989,1.932,3.989,4.304
		C115.034,137.49,112.871,138.981,110.352,138.981z"/>
	<path fill="#CA9E67" d="M121.062,133.375c-0.588,0-1.491-0.063-2.016-0.147v5.501h-0.693v-15.327
		c0.903-0.105,1.827-0.168,2.813-0.168c3.968,0,5.921,2.268,5.921,4.892C127.087,131.212,124.841,133.375,121.062,133.375z
		 M121.167,123.843c-0.735,0-1.428,0.063-2.121,0.126v8.65c0.546,0.084,1.344,0.168,2.016,0.168c3.296,0,5.312-1.806,5.312-4.661
		C126.374,125.816,124.61,123.843,121.167,123.843z"/>
	<path fill="#CA9E67" d="M140.359,138.729l-2.141-5.144h-7.559l-2.143,5.144h-0.734l6.572-15.621h0.168l6.571,15.621H140.359z
		 M134.439,124.536l-3.527,8.44h7.033L134.439,124.536z"/>
	<path fill="#CA9E67" d="M150.482,138.897c-4.136,0-7.936-2.813-7.936-7.811c0-5.06,3.842-8,7.957-8
		c2.394,0,4.053,0.777,5.627,1.911l-0.357,0.546c-1.512-1.092-3.064-1.827-5.27-1.848c-3.653,0-7.244,2.667-7.244,7.37
		c0,4.682,3.57,7.223,7.244,7.223c2.162,0,3.717-0.735,5.229-1.764l0.314,0.504C154.493,138.12,152.876,138.897,150.482,138.897z"/>
	<path fill="#CA9E67" d="M159.283,138.729v-15.39h8.378v0.609h-7.685v6.677h6.949v0.588h-6.949v6.908h7.685v0.609H159.283z"/>
</g>
<g>
	<path fill="#CA9E67" d="M86.474,0c0,0-15.775,19.55-15.775,43.666s7.063,43.666,15.775,43.666s15.775-19.55,15.775-43.666
		S86.474,0,86.474,0z M86.474,43.667c-3.416,0-6.185-2.769-6.185-6.185c0-3.415,2.769-6.184,6.185-6.184
		c3.415,0,6.184,2.769,6.184,6.184C92.658,40.897,89.889,43.667,86.474,43.667z"/>
	<g>
		<path fill="#CA9E67" d="M79.525,82.871c0,0-6.501-16.377-6.501-16.377s-7.412-6.667-13.954,3.613
			c-4.601,7.229-2.382,33.479-1.842,33.479c0.616,0,4.748-22.71,7.616-23.25C75.47,78.336,79.525,82.871,79.525,82.871z"/>
	</g>
	<g>
		<path fill="#CA9E67" d="M93.47,82.871c0,0,6.501-16.377,6.501-16.377s7.412-6.667,13.954,3.613
			c4.601,7.229,2.382,33.479,1.842,33.479c-0.616,0-4.748-22.71-7.616-23.25C97.525,78.336,93.47,82.871,93.47,82.871z"/>
	</g>
</g>
<g>
</g>
<g>
</g>
<g>
</g>
<g>
</g>
<g>
</g>
<g>
</g>
</svg>
